<svg width="472" height="307" viewBox="0 0 472 307" fill="none" xmlns="http://www.w3.org/2000/svg">
<path d="M126.534 70.9106C125.294 71.7677 123.792 71.9724 122.34 72.0684C120.127 72.2155 117.907 72.1579 115.721 71.8509C115.716 72.369 115.649 72.8936 115.516 73.3925C114.926 75.5738 113.191 77.0643 111.472 78.2157C100.887 85.3034 87.6099 85.1179 75.818 81.3118C72.2637 80.1667 68.6705 78.6315 65.9895 75.7146C65.6892 75.3883 65.3999 75.0365 65.1274 74.6655C64.649 74.8446 64.1651 74.9917 63.6923 75.1069C59.4428 76.1687 54.9874 76.1303 50.749 74.9981C48.5631 74.4096 46.3493 73.4757 44.7752 71.627C43.2067 69.7783 42.4446 66.8294 43.4625 64.5201C43.7406 63.8869 44.1355 63.3495 44.6083 62.8954C45.5317 62.0062 46.7442 61.4753 47.9568 61.2898C48.2794 61.245 48.6076 61.2194 48.9302 61.213C48.9024 60.8292 48.8968 60.4454 48.9191 60.0552C49.0637 57.2854 50.6044 54.6627 52.8071 53.4409C55.1766 52.1295 57.9632 52.443 60.7722 53.1978C58.8866 50.2553 59.1202 45.963 60.9335 42.9693C62.7523 39.9692 65.895 38.2229 69.0877 37.8263C70.4504 37.6536 71.8577 37.7111 73.1425 38.2549C75.0337 39.0609 76.5466 40.9479 77.0639 44.351C77.0639 40.6601 78.6102 37.0778 80.9463 34.4999C83.2825 31.922 86.3639 30.3036 89.5567 29.504C91.6759 28.9731 93.8896 28.794 96.02 29.2993C99.5242 30.1309 102.633 32.9071 104.163 36.5725C104.486 37.3401 104.736 38.1461 104.908 38.9777H104.931C107.673 39.0673 110.343 40.9735 111.5 43.8329C111.778 44.5237 111.961 45.2658 112.05 46.0206C114.742 46.2956 117.368 47.8884 118.764 50.4983C119.298 51.4771 119.615 52.6029 119.704 53.7607C119.882 55.8205 119.337 58.0146 117.963 59.7801C119.938 58.5711 122.335 58.2001 124.46 58.9869C126.095 59.601 127.536 60.9443 128.331 62.6651C128.57 63.1768 128.754 63.7205 128.865 64.2899C128.92 64.5585 128.965 64.8464 128.982 65.1342C129.143 67.3731 128.231 69.7271 126.534 70.9106Z" fill="#547C6A"/>
<path d="M126.534 70.9105C125.294 71.7677 123.792 71.9724 122.34 72.0683C120.127 72.2155 117.907 72.1579 115.721 71.8509C115.716 72.369 115.649 72.8935 115.516 73.3925C114.926 75.5738 113.191 77.0642 111.472 78.2157C100.887 85.3033 87.6099 85.1178 75.818 81.3117C72.2637 80.1667 68.6705 78.6315 65.9895 75.7145C65.6892 75.3883 65.3999 75.0365 65.1274 74.6655C64.649 74.8446 64.1651 74.9917 63.6923 75.1068C59.4428 76.1687 54.9874 76.1303 50.749 74.9981C48.5631 74.4096 46.3493 73.4756 44.7752 71.627C43.2067 69.7783 42.4446 66.8294 43.4625 64.5201C43.7406 63.8868 44.1355 63.3495 44.6083 62.8953C46.9612 66.3944 50.6545 68.6908 54.5035 68.9979C58.7197 69.3369 63.036 67.2835 65.8115 63.6118C69.3157 70.1749 76.2073 73.4245 82.8709 74.2049C86.7589 74.6655 90.797 74.4032 94.3902 72.6249C97.9834 70.853 101.076 67.4115 102.088 63.068C107.384 66.7782 113.708 68.5245 119.893 67.9808C123.264 67.6929 127.124 66.1449 128.331 62.665C128.57 63.1768 128.754 63.7205 128.865 64.2898C128.92 64.5585 128.965 64.8464 128.982 65.1342C129.143 67.3731 128.231 69.7271 126.534 70.9105Z" fill="#2C433D"/>
<path d="M87.3477 46.1159C88.6103 48.429 90.7117 50.1146 93.035 50.6781C95.3584 51.2417 97.8731 50.6762 99.8404 49.1467C100.876 50.5809 102.604 51.3076 104.2 50.9801C105.796 50.6525 107.198 49.2843 107.739 47.5264C106.416 48.7456 104.574 49.18 102.941 48.6587C101.307 48.1373 99.9238 46.6731 99.337 44.8442C95.9624 47.9121 90.8496 48.1411 87.3477 46.1159Z" fill="#84B383"/>
<path d="M104.003 78.1288C101.85 78.4218 100.222 78.7487 97.7393 78.8049C96.2447 78.7653 94.7323 79.2713 93.2539 78.9821C94.0248 79.751 95.0839 79.9186 96.0467 80.1758C97.3877 80.4911 98.7905 80.6926 100.138 80.3172C101.567 79.8777 102.934 79.1325 104.146 78.1608C104.321 78.0015 104.111 78.1224 104.003 78.1288Z" fill="#81AB7E"/>
<path d="M98.6406 76.1757C101.03 76.3312 103.398 75.3915 105.315 73.7737C103.464 73.7257 100.554 75.0723 98.6406 76.1757Z" fill="#81AB7E"/>
<path d="M87.6914 80.2274C88.7543 80.7104 89.9458 80.8908 91.0493 80.4833C89.8751 80.1884 88.9296 80.0138 87.6914 80.2274Z" fill="#81AB7E"/>
<path d="M80.8206 208.6C79.6205 209.323 78.1675 209.496 76.7629 209.577C74.6211 209.701 72.4738 209.653 70.3589 209.393C70.3535 209.831 70.2889 210.274 70.1598 210.695C69.5893 212.536 67.9103 213.794 66.2474 214.766C56.0064 220.75 43.1607 220.593 31.7518 217.38C28.313 216.413 24.8366 215.117 22.2427 212.655C21.9521 212.38 21.6722 212.083 21.4085 211.769C20.9457 211.921 20.4775 212.045 20.0201 212.142C15.9086 213.038 11.598 213.006 7.49729 212.05C5.38235 211.553 3.2405 210.765 1.71753 209.204C0.199941 207.644 -0.537329 205.154 0.447491 203.205C0.716567 202.67 1.09865 202.217 1.55608 201.833C2.44942 201.083 3.62259 200.635 4.79576 200.478C5.10789 200.44 5.4254 200.419 5.73753 200.413C5.71062 200.089 5.70524 199.765 5.72677 199.436C5.86669 197.098 7.35737 194.884 9.48846 193.852C11.781 192.745 14.4771 193.01 17.1948 193.647C15.3705 191.163 15.5965 187.54 17.3509 185.012C19.1106 182.48 22.1512 181.006 25.2402 180.671C26.5587 180.525 27.9202 180.574 29.1633 181.033C30.993 181.713 32.4568 183.306 32.9573 186.179C32.9573 183.063 34.4534 180.039 36.7136 177.863C38.9738 175.687 41.9552 174.32 45.0442 173.645C47.0946 173.197 49.2364 173.046 51.2975 173.473C54.6879 174.175 57.6962 176.518 59.1761 179.612C59.4882 180.26 59.7304 180.941 59.8972 181.643H59.9187C62.5718 181.718 65.155 183.328 66.2743 185.741C66.5434 186.325 66.721 186.951 66.8071 187.588C69.4118 187.82 71.9518 189.165 73.3026 191.368C73.8192 192.194 74.126 193.145 74.2121 194.122C74.3843 195.861 73.8569 197.713 72.5276 199.204C74.4381 198.183 76.7575 197.87 78.8133 198.534C80.3954 199.052 81.7893 200.186 82.5588 201.639C82.7902 202.071 82.9678 202.53 83.0754 203.011C83.1293 203.237 83.1723 203.48 83.1885 203.723C83.3445 205.613 82.4619 207.601 80.8206 208.6Z" fill="#FFE8C3"/>
<path d="M80.8206 208.6C79.6205 209.323 78.1675 209.496 76.7629 209.577C74.6211 209.701 72.4738 209.653 70.3589 209.393C70.3535 209.831 70.2889 210.274 70.1598 210.695C69.5893 212.536 67.9103 213.794 66.2474 214.766C56.0064 220.75 43.1607 220.593 31.7518 217.38C28.313 216.413 24.8366 215.117 22.2427 212.655C21.9521 212.38 21.6722 212.083 21.4085 211.769C20.9457 211.921 20.4775 212.045 20.0201 212.142C15.9086 213.038 11.598 213.006 7.49729 212.05C5.38235 211.553 3.2405 210.765 1.71753 209.204C0.199941 207.644 -0.537329 205.154 0.447491 203.205C0.716567 202.67 1.09865 202.217 1.55608 201.833C3.83247 204.787 7.40581 206.726 11.1298 206.985C15.209 207.271 19.3851 205.538 22.0705 202.438C25.4608 207.979 32.1285 210.722 38.5756 211.381C42.3373 211.769 46.2443 211.548 49.7207 210.047C53.1972 208.551 56.1893 205.646 57.1688 201.979C62.292 205.111 68.4108 206.585 74.395 206.126C77.6562 205.883 81.391 204.577 82.5588 201.639C82.7902 202.071 82.9678 202.53 83.0754 203.011C83.1293 203.237 83.1723 203.48 83.1885 203.723C83.3445 205.613 82.4619 207.601 80.8206 208.6Z" fill="#EBB77F"/>
<path d="M42.9067 187.669C44.1283 189.621 46.1615 191.044 48.4094 191.52C50.6572 191.996 53.0902 191.518 54.9936 190.227C55.9957 191.438 57.6672 192.051 59.2112 191.775C60.7557 191.498 62.1123 190.343 62.6354 188.859C61.3557 189.889 59.5739 190.255 57.9933 189.815C56.4128 189.375 55.0744 188.139 54.5066 186.595C51.2416 189.185 46.2949 189.378 42.9067 187.669Z" fill="#EBB77F"/>
<path d="M59.0214 214.693C56.9382 214.94 55.3631 215.216 52.9608 215.264C51.5147 215.23 50.0515 215.657 48.6211 215.413C49.367 216.062 50.3916 216.204 51.3232 216.421C52.6206 216.687 53.9779 216.857 55.2818 216.54C56.6638 216.169 57.9871 215.54 59.1592 214.72C59.3282 214.586 59.1258 214.688 59.0214 214.693Z" fill="#FFFEFC"/>
<path d="M53.834 213.044C56.1459 213.176 58.4368 212.382 60.2918 211.017C58.5003 210.976 55.6852 212.113 53.834 213.044Z" fill="#FFFEFC"/>
<path d="M43.2397 216.465C44.2682 216.872 45.4209 217.025 46.4886 216.681C45.3525 216.432 44.4377 216.284 43.2397 216.465Z" fill="#FFFEFC"/>
<path d="M132.812 228.1C132.214 228.46 131.49 228.546 130.791 228.586C129.724 228.648 128.655 228.624 127.602 228.495C127.599 228.713 127.567 228.933 127.502 229.143C127.218 230.06 126.382 230.687 125.554 231.171C120.454 234.15 114.057 234.072 108.375 232.472C106.662 231.991 104.931 231.345 103.639 230.119C103.494 229.982 103.355 229.834 103.224 229.678C102.993 229.753 102.76 229.815 102.532 229.864C100.485 230.31 98.338 230.294 96.2958 229.818C95.2425 229.571 94.1758 229.178 93.4174 228.401C92.6616 227.624 92.2944 226.384 92.7849 225.413C92.9189 225.147 93.1092 224.921 93.337 224.73C93.7819 224.356 94.3661 224.133 94.9504 224.055C95.1058 224.036 95.2639 224.025 95.4194 224.023C95.406 223.861 95.4033 223.7 95.414 223.536C95.4837 222.371 96.2261 221.269 97.2874 220.755C98.4291 220.204 99.7718 220.336 101.125 220.653C100.217 219.416 100.329 217.611 101.203 216.353C102.079 215.092 103.594 214.357 105.132 214.191C105.789 214.118 106.467 214.142 107.086 214.371C107.997 214.71 108.726 215.503 108.975 216.934C108.975 215.382 109.72 213.876 110.846 212.792C111.971 211.708 113.456 211.028 114.995 210.692C116.016 210.469 117.082 210.393 118.109 210.606C119.797 210.955 121.295 212.123 122.032 213.664C122.188 213.986 122.309 214.325 122.392 214.675H122.402C123.724 214.712 125.01 215.514 125.567 216.716C125.701 217.006 125.79 217.318 125.833 217.636C127.13 217.751 128.395 218.421 129.068 219.518C129.325 219.93 129.478 220.403 129.521 220.89C129.606 221.756 129.344 222.678 128.682 223.42C129.633 222.912 130.788 222.756 131.812 223.087C132.6 223.345 133.294 223.91 133.677 224.633C133.793 224.848 133.881 225.077 133.935 225.316C133.961 225.429 133.983 225.55 133.991 225.671C134.069 226.612 133.629 227.602 132.812 228.1Z" fill="#FFE8C3"/>
<path d="M132.812 228.1C132.214 228.46 131.49 228.546 130.791 228.586C129.724 228.648 128.655 228.624 127.602 228.495C127.599 228.713 127.567 228.933 127.502 229.143C127.218 230.06 126.382 230.687 125.554 231.171C120.454 234.15 114.057 234.072 108.375 232.472C106.662 231.991 104.931 231.345 103.639 230.119C103.494 229.982 103.355 229.834 103.224 229.678C102.993 229.753 102.76 229.815 102.532 229.864C100.485 230.31 98.338 230.294 96.2958 229.818C95.2425 229.571 94.1758 229.178 93.4174 228.401C92.6616 227.624 92.2944 226.384 92.7849 225.413C92.9189 225.147 93.1092 224.921 93.337 224.73C94.4706 226.201 96.2502 227.166 98.1048 227.295C100.136 227.438 102.216 226.575 103.553 225.031C105.242 227.79 108.562 229.156 111.773 229.485C113.647 229.678 115.592 229.568 117.324 228.82C119.055 228.075 120.545 226.628 121.033 224.802C123.584 226.362 126.631 227.096 129.612 226.868C131.236 226.747 133.096 226.096 133.677 224.633C133.793 224.848 133.881 225.077 133.935 225.316C133.961 225.429 133.983 225.55 133.991 225.671C134.069 226.612 133.629 227.602 132.812 228.1Z" fill="#EBB77F"/>
<path d="M113.93 217.676C114.539 218.648 115.551 219.357 116.671 219.594C117.79 219.831 119.002 219.593 119.95 218.95C120.449 219.553 121.281 219.858 122.05 219.721C122.819 219.583 123.495 219.008 123.755 218.269C123.118 218.781 122.231 218.964 121.443 218.745C120.656 218.525 119.99 217.91 119.707 217.141C118.081 218.431 115.618 218.527 113.93 217.676Z" fill="#EBB77F"/>
<path d="M121.956 231.134C120.918 231.257 120.134 231.395 118.938 231.418C118.217 231.402 117.489 231.614 116.776 231.493C117.148 231.816 117.658 231.887 118.122 231.995C118.768 232.127 119.444 232.212 120.093 232.054C120.782 231.869 121.441 231.556 122.024 231.148C122.109 231.081 122.008 231.131 121.956 231.134Z" fill="#FFFEFC"/>
<path d="M119.372 230.313C120.523 230.378 121.664 229.983 122.588 229.303C121.696 229.283 120.294 229.849 119.372 230.313Z" fill="#FFFEFC"/>
<path d="M114.096 232.017C114.608 232.22 115.182 232.295 115.714 232.124C115.148 232 114.693 231.927 114.096 232.017Z" fill="#FFFEFC"/>
<path d="M457.744 281.332C454.525 285.538 449.994 285.626 442.837 284.981C441.674 287.361 439.486 289.138 437.076 290.239C434.666 291.34 432.024 291.83 429.4 292.199C424.899 292.819 420.27 293.088 415.776 292.557C413.837 295.156 410.296 296.538 407.035 296.043C405.395 295.798 403.855 295.134 402.505 294.164C391.028 300.487 372.931 296.419 361.922 291.176C360.445 292.621 358.653 293.767 356.811 294.73C348.093 299.242 337.41 299.769 328.295 296.131C325.475 295.006 322.719 293.378 320.52 291.273C316.743 294.093 311.956 295.605 307.216 296.12C296.636 297.278 285.638 293.854 277.576 286.89C275.9 285.446 274.28 283.729 273.804 281.565C273.782 281.462 273.768 281.353 273.746 281.249C269.65 281.015 265.577 280.352 261.616 279.271C259.554 278.708 257.143 277.587 257.004 275.443C256.978 274.962 257.08 274.491 257.283 274.064C257.583 273.423 258.104 272.874 258.721 272.483C258.997 272.295 259.297 272.147 259.602 272.031C261.031 271.5 262.619 271.595 264.137 271.701C263.594 269.425 264.919 267.006 266.834 265.648C267.612 265.09 268.472 264.676 269.379 264.379C270.689 263.919 272.087 263.687 273.462 263.518C277.517 263.04 281.999 263.225 285.131 265.855C287.848 258.823 293.412 254.506 299.424 253.689C305.437 252.873 311.651 255.325 315.977 259.59C316.684 260.297 317.357 261.061 317.938 261.884C318.494 261.567 319.075 261.289 319.673 261.044C323.834 259.353 328.947 259.596 332.435 262.419C334.504 264.103 335.811 266.461 336.836 268.954C337.02 269.154 334.892 254.871 348.464 249.407C354.307 247.053 361.118 247.89 366.514 251.128C371.21 245.802 377.828 242.295 384.818 241.685C395.234 240.776 405.947 246.36 411.176 255.432C413.04 254.213 415.605 254.386 417.716 255.483C419.821 256.579 421.436 258.584 422.068 260.876C425.68 257.71 430.734 257.663 434.572 259.891C435.44 260.4 436.241 261.021 436.948 261.728C439.385 264.131 440.84 267.552 440.736 270.986C444.318 268.081 449.64 267.596 453.719 269.687C454.02 269.84 454.321 270.006 454.608 270.19C455.612 270.826 456.526 271.631 457.25 272.563C457.853 273.336 458.336 274.201 458.637 275.135C459.316 277.2 459.053 279.604 457.744 281.332Z" fill="#FFFEFC"/>
<path d="M457.744 281.332C454.525 285.538 449.994 285.626 442.837 284.981C441.674 287.361 439.486 289.138 437.076 290.239C434.666 291.34 432.024 291.83 429.4 292.199C424.899 292.819 420.27 293.088 415.776 292.556C413.837 295.156 410.296 296.538 407.035 296.043C405.395 295.798 403.855 295.134 402.505 294.164C391.028 300.487 372.931 296.419 361.922 291.176C360.445 292.621 358.653 293.767 356.811 294.73C348.093 299.242 337.41 299.769 328.295 296.131C325.475 295.006 322.719 293.378 320.52 291.273C316.743 294.093 311.956 295.605 307.216 296.12C296.636 297.278 285.638 293.854 277.576 286.89C275.9 285.446 274.28 283.729 273.804 281.565C273.782 281.462 273.768 281.353 273.746 281.249C269.65 281.015 265.577 280.352 261.616 279.271C259.554 278.708 257.143 277.587 257.004 275.443C256.978 274.961 257.08 274.491 257.283 274.064C257.583 273.423 258.104 272.874 258.721 272.483C259.628 273.96 261.695 274.567 263.505 274.883C267.455 275.58 271.654 275.991 275.24 274.591C278.925 277.294 283.123 279.3 287.54 280.469C290.06 281.133 292.678 281.526 295.268 281.227C297.85 280.933 300.412 279.896 302.237 278.24C304.937 281.729 309.476 283.23 313.829 283.923C317.051 284.436 320.363 284.607 323.561 283.979C326.765 283.352 329.862 281.875 332.325 279.45C337.706 281.958 343.849 283.178 349.649 281.905C355.449 280.639 360.796 276.619 362.331 270.687C366.033 272.641 369.98 274.387 374.161 274.593C378.342 274.792 382.834 273.153 384.893 269.144C389.59 273.417 395.139 276.995 401.373 278.173C407.606 279.357 414.581 277.805 419.07 273.016C424.41 276.566 430.682 278.693 437.073 279.135C440.69 279.382 444.443 279.071 447.675 277.426C450.711 275.889 453.198 273.017 453.721 269.689C454.022 269.842 454.322 270.007 454.609 270.192C455.613 270.828 456.527 271.633 457.251 272.564C457.854 273.338 458.337 274.203 458.639 275.137C459.316 277.2 459.053 279.604 457.744 281.332Z" fill="#FFDFBC"/>
<path d="M408.209 286.802C410.687 287.95 413.592 287.698 416.004 286.5C413.396 286.306 410.802 286.552 408.209 286.802Z" fill="#FFFEFC"/>
<path d="M407.193 283.865C405.184 283.265 403.589 283.177 401.561 282.915C403.43 284.294 405.849 284.7 408.111 284.316C408.964 284.255 407.511 283.998 407.193 283.865Z" fill="#FFFEFC"/>
<path d="M416.164 283.318C414.822 283.278 413.498 283.547 412.185 283.794C413.638 284.287 415.213 284.16 416.62 283.575C417.633 283.227 416.618 283.37 416.164 283.318Z" fill="#FFFEFC"/>
<path d="M303.372 290.462C301.437 290.34 299.504 290.546 297.57 290.515C300.924 292.205 305.456 292.794 308.675 290.522C306.921 290.82 305.133 290.561 303.372 290.462Z" fill="#FFFEFC"/>
<path d="M293.979 287.828C295.649 288.619 297.593 288.647 299.35 288.141C297.573 287.687 295.91 287.65 293.979 287.828Z" fill="#FFFEFC"/>
<path d="M350.942 291.657C349.425 291.782 347.369 292.438 345.669 293.008C347.982 293.465 350.4 292.86 352.362 291.588C352.826 291.352 351.195 291.651 350.942 291.657Z" fill="#FFFEFC"/>
<path d="M275.315 52.6289C276.521 53.064 277.822 53.1311 279.107 53.1579C283.176 53.2572 287.258 52.9921 291.271 52.3391L291.276 52.4488C294.472 54.1492 298.692 53.5079 301.598 51.1813C302.76 52.2008 304.45 52.8962 305.993 53.31C318.959 56.7697 333.038 56.1634 345.645 51.6081C348.61 50.5408 352.044 48.3149 351.405 45.2977C351.36 45.0873 351.294 44.8838 351.215 44.6886C350.725 43.5369 349.626 42.6586 348.398 42.19C348.579 41.346 348.567 40.4752 348.317 39.6359C348.3 39.5681 348.283 39.4934 348.258 39.4256C347.931 38.4589 347.308 37.6149 346.596 36.8709C346.522 36.7914 346.456 36.7263 346.382 36.6537C342.533 32.8829 336.029 32.0046 331.312 35.0327C331.06 29.9691 326.876 25.3488 321.733 24.4527C319.734 24.0998 317.501 24.3335 315.279 25.581C308.853 12.0392 287.528 15.6052 283.103 28.7435C282.053 31.8538 281.951 35.5068 283.217 39.601C280.92 39.2201 278.502 38.9399 276.282 39.6325C275.288 39.9429 274.365 40.4697 273.585 41.148C272.349 42.1886 271.46 43.6123 271.136 45.1627C271.083 45.3984 271.051 45.6327 271.027 45.8738C270.761 48.704 272.568 51.6431 275.315 52.6289Z" fill="#FFF4E4"/>
<path d="M275.315 52.629C276.521 53.064 277.822 53.1312 279.107 53.1579C283.176 53.2572 287.258 52.9921 291.271 52.3392L291.276 52.4488C294.472 54.1492 298.692 53.508 301.598 51.1814C302.76 52.2008 304.45 52.8962 305.993 53.31C318.959 56.7698 333.038 56.1634 345.645 51.6082C348.61 50.5408 352.044 48.3149 351.405 45.2977C351.36 45.0874 351.294 44.8839 351.215 44.6886C347.647 47.6887 342.127 47.8298 337.304 47.277C332.296 46.7179 326.719 45.271 324.3 40.9726C320.848 43.5835 316.561 45.3587 312.196 45.1353C307.832 44.9051 303.476 42.3976 301.878 38.4412C297.968 44.3152 290.585 47.0612 283.489 48.2306C279.336 48.9171 274.425 48.9301 271.687 45.8245C271.5 45.606 271.321 45.3806 271.135 45.1627C271.082 45.3984 271.05 45.6327 271.026 45.8739C270.761 48.704 272.568 51.6431 275.315 52.629Z" fill="#FFC586"/>
<path d="M330.83 51.5568C327.384 53.2627 323.075 53.9958 319.5 52.233C323.387 52.0481 326.478 51.3246 330.83 51.5568Z" fill="#FFF4E4"/>
<path d="M316.98 49.6427C319.635 49.3495 321.919 49.5762 324.374 50.0236C321.635 50.904 318.588 50.9218 315.913 49.8188C315.354 49.6619 316.762 49.6996 316.98 49.6427Z" fill="#FFF4E4"/>
<path d="M331.266 48.7725C330.477 49.1877 329.562 49.2905 328.696 49.0644C329.53 48.8335 330.4 48.7362 331.266 48.7725Z" fill="#FFF4E4"/>
<path d="M301.532 49.085C298.732 50.475 295.506 50.9094 292.461 50.0688C295.42 49.3337 298.474 48.9137 301.532 49.085Z" fill="#FFF4E4"/>
<path d="M468.631 107.329C467.69 107.73 466.673 107.792 465.67 107.817C462.493 107.908 459.306 107.664 456.173 107.062L456.169 107.163C453.673 108.73 450.379 108.139 448.109 105.995C447.202 106.935 445.883 107.576 444.678 107.957C434.554 111.145 423.562 110.587 413.718 106.389C411.404 105.405 408.722 103.354 409.221 100.573C409.256 100.38 409.308 100.192 409.37 100.012C409.752 98.9509 410.61 98.1415 411.569 97.7097C411.428 96.9319 411.437 96.1294 411.632 95.356C411.645 95.2935 411.659 95.2247 411.678 95.1622C411.933 94.2714 412.42 93.4936 412.976 92.8079C413.034 92.7347 413.085 92.6747 413.143 92.6078C416.148 89.1329 421.226 88.3235 424.909 91.1141C425.106 86.4478 428.373 82.1901 432.388 81.3643C433.949 81.0391 435.693 81.2544 437.428 82.4041C442.445 69.925 459.096 73.2111 462.55 85.3184C463.37 88.1846 463.45 91.551 462.461 95.3238C464.254 94.9728 466.143 94.7146 467.876 95.3529C468.652 95.6389 469.372 96.1244 469.982 96.7494C470.947 97.7084 471.641 99.0204 471.894 100.449C471.935 100.666 471.96 100.882 471.979 101.104C472.187 103.712 470.776 106.421 468.631 107.329Z" fill="#FFFEFC"/>
<path d="M468.631 107.329C467.69 107.73 466.673 107.792 465.67 107.817C462.493 107.908 459.306 107.664 456.173 107.062L456.169 107.163C453.673 108.73 450.379 108.139 448.109 105.995C447.202 106.935 445.883 107.576 444.678 107.957C434.554 111.145 423.562 110.587 413.718 106.389C411.404 105.405 408.722 103.354 409.221 100.573C409.256 100.38 409.308 100.192 409.37 100.012C412.156 102.777 416.465 102.907 420.231 102.397C424.141 101.882 428.495 100.549 430.385 96.5878C433.079 98.9938 436.427 100.63 439.834 100.424C443.242 100.212 446.643 97.901 447.891 94.255C450.944 99.6681 456.708 102.199 462.248 103.276C465.491 103.909 469.325 103.921 471.464 101.059C471.609 100.858 471.75 100.65 471.895 100.449C471.936 100.666 471.961 100.882 471.98 101.104C472.187 103.712 470.776 106.421 468.631 107.329Z" fill="#FFDFBC"/>
<path d="M425.286 106.341C427.976 107.913 431.34 108.589 434.131 106.964C431.097 106.794 428.683 106.127 425.286 106.341Z" fill="#FFFEFC"/>
<path d="M436.099 104.577C434.027 104.307 432.243 104.516 430.327 104.928C432.465 105.74 434.844 105.756 436.933 104.74C437.369 104.595 436.27 104.63 436.099 104.577Z" fill="#FFFEFC"/>
<path d="M424.945 103.776C425.561 104.158 426.275 104.253 426.951 104.045C426.301 103.832 425.621 103.742 424.945 103.776Z" fill="#FFFEFC"/>
<path d="M448.161 104.064C450.346 105.345 452.866 105.745 455.243 104.97C452.932 104.293 450.548 103.906 448.161 104.064Z" fill="#FFFEFC"/>
</svg>
