<svg width="43" height="42" viewBox="0 0 43 42" fill="none" xmlns="http://www.w3.org/2000/svg">
<path d="M30.3117 35.364C29.9503 36.1588 29.3677 36.8327 28.6335 37.3052C27.8994 37.7777 27.0447 38.0288 26.1717 38.0286H12.2175C11.6205 38.0287 11.0294 37.9112 10.4779 37.6828C9.92632 37.4544 9.42519 37.1196 9.00308 36.6974C8.58096 36.2753 8.24614 35.7742 8.01773 35.2227C7.78932 34.6711 7.6718 34.08 7.67188 33.483V13.1262C7.67137 12.2531 7.92241 11.3983 8.39496 10.6641C8.8675 9.92993 9.54155 9.34741 10.3365 8.98624V31.74C10.3363 32.216 10.4299 32.6874 10.612 33.1273C10.794 33.5671 11.061 33.9667 11.3975 34.3034C11.734 34.64 12.1336 34.9071 12.5734 35.0893C13.0131 35.2715 13.4845 35.3652 13.9605 35.3652L30.3117 35.364ZM24.0195 12.8808V3.97144H16.8261C16.2289 3.97144 15.6376 4.08911 15.0859 4.31775C14.5343 4.54638 14.0331 4.88148 13.611 5.30391C13.1889 5.72633 12.8542 6.22779 12.626 6.77963C12.3978 7.33147 12.2806 7.92287 12.2811 8.52004V30.282C12.2816 31.1145 12.6126 31.9126 13.2013 32.501C13.7901 33.0895 14.5885 33.42 15.4209 33.42H30.7809C31.3778 33.42 31.9689 33.3025 32.5204 33.074C33.0719 32.8456 33.573 32.5108 33.9951 32.0887C34.4172 31.6666 34.752 31.1655 34.9805 30.614C35.2089 30.0625 35.3265 29.4714 35.3265 28.8744V15.6228H26.7591C26.0323 15.6222 25.3354 15.333 24.8217 14.8189C24.308 14.3047 24.0195 13.6076 24.0195 12.8808ZM25.5933 3.97144L35.3271 14.0862H27.0033C26.6293 14.0862 26.2707 13.9377 26.0063 13.6733C25.7418 13.4088 25.5933 13.0502 25.5933 12.6762V3.97144Z" fill="#944F1E"/>
</svg>
