<svg width="77" height="43" viewBox="0 0 77 43" fill="none" xmlns="http://www.w3.org/2000/svg">
<path d="M74.7923 32.6288C73.6818 33.2961 72.3371 33.4555 71.0373 33.5302C69.0552 33.6447 67.0682 33.5999 65.111 33.3609C65.106 33.7642 65.0462 34.1726 64.9267 34.5611C64.3988 36.2593 62.845 37.4197 61.3062 38.3161C51.829 43.8341 39.9414 43.6897 29.3835 40.7265C26.2012 39.835 22.9841 38.6398 20.5836 36.3689C20.3147 36.1149 20.0557 35.841 19.8117 35.5521C19.3834 35.6916 18.9502 35.8061 18.5268 35.8957C14.722 36.7224 10.7329 36.6926 6.93809 35.8111C4.98089 35.3529 2.9988 34.6258 1.58942 33.1866C0.185027 31.7473 -0.497251 29.4515 0.414113 27.6536C0.66312 27.1606 1.01671 26.7423 1.44002 26.3887C2.26672 25.6964 3.35239 25.2831 4.43806 25.1387C4.72691 25.1038 5.02073 25.0839 5.30958 25.0789C5.28468 24.7801 5.2797 24.4813 5.29962 24.1775C5.4291 22.0211 6.8086 19.9793 8.78073 19.028C10.9023 18.0071 13.3973 18.2511 15.9123 18.8388C14.224 16.5479 14.4332 13.2063 16.0567 10.8756C17.6852 8.5399 20.499 7.18032 23.3576 6.87155C24.5777 6.73709 25.8377 6.78191 26.9881 7.20522C28.6813 7.83271 30.0359 9.30186 30.4991 11.9513C30.4991 9.07775 31.8835 6.28888 33.9752 4.28188C36.0669 2.27489 38.8258 1.01492 41.6844 0.392403C43.5819 -0.0209475 45.564 -0.160391 47.4714 0.233039C50.6088 0.880456 53.3927 3.04183 54.7623 5.89545C55.0511 6.49306 55.2752 7.12056 55.4296 7.76797H55.4495C57.9047 7.8377 60.2952 9.32177 61.331 11.5479C61.5801 12.0857 61.7444 12.6634 61.8241 13.2511C64.2345 13.4652 66.5851 14.7053 67.8351 16.7372C68.3132 17.4991 68.5971 18.3756 68.6767 19.2771C68.8361 20.8807 68.348 22.5888 67.118 23.9634C68.8859 23.0221 71.0324 22.7333 72.9348 23.3458C74.3989 23.8239 75.6888 24.8697 76.4009 26.2094C76.6151 26.6078 76.7794 27.0311 76.879 27.4743C76.9288 27.6835 76.9687 27.9076 76.9836 28.1317C77.128 29.8748 76.3113 31.7075 74.7923 32.6288Z" fill="#FFE8C3"/>
<path d="M74.7923 32.6286C73.6818 33.296 72.3371 33.4553 71.0373 33.53C69.0552 33.6446 67.0682 33.5997 65.111 33.3607C65.106 33.7641 65.0462 34.1725 64.9267 34.5609C64.3988 36.2591 62.845 37.4195 61.3062 38.3159C51.829 43.8339 39.9414 43.6895 29.3835 40.7263C26.2012 39.8349 22.9841 38.6396 20.5836 36.3687C20.3147 36.1147 20.0557 35.8408 19.8117 35.552C19.3834 35.6914 18.9502 35.8059 18.5268 35.8956C14.722 36.7223 10.7329 36.6924 6.93809 35.8109C4.98089 35.3527 2.9988 34.6257 1.58942 33.1864C0.185027 31.7471 -0.497251 29.4513 0.414113 27.6535C0.66312 27.1604 1.01671 26.7421 1.44002 26.3885C3.54661 29.1126 6.85342 30.9005 10.2997 31.1396C14.0746 31.4035 17.9392 29.8049 20.4243 26.9463C23.5618 32.0559 29.7321 34.5858 35.6983 35.1934C39.1794 35.552 42.795 35.3478 46.0122 33.9633C49.2293 32.5838 51.9983 29.9045 52.9047 26.523C57.6458 29.4115 63.3082 30.771 68.8461 30.3477C71.864 30.1236 75.3202 28.9184 76.4009 26.2092C76.6151 26.6076 76.7794 27.031 76.879 27.4742C76.9288 27.6834 76.9687 27.9075 76.9836 28.1316C77.128 29.8746 76.3113 31.7073 74.7923 32.6286Z" fill="#EBB77F"/>
<path d="M39.7065 13.3253C40.837 15.1261 42.7185 16.4383 44.7987 16.8771C46.8789 17.3158 49.1304 16.8756 50.8919 15.6848C51.8192 16.8014 53.366 17.3671 54.7948 17.1121C56.2241 16.8572 57.4796 15.7919 57.9637 14.4234C56.7794 15.3726 55.1305 15.7107 53.6678 15.3049C52.2052 14.899 50.9666 13.759 50.4412 12.3352C47.4198 14.7237 42.842 14.902 39.7065 13.3253Z" fill="#EBB77F"/>
<path d="M54.6192 38.2484C52.6914 38.4764 51.2337 38.7309 49.0106 38.7748C47.6724 38.7439 46.3183 39.1378 44.9946 38.9127C45.6849 39.5113 46.6331 39.6418 47.4951 39.842C48.6959 40.0875 49.9518 40.2444 51.1585 39.9521C52.4374 39.6099 53.662 39.0297 54.7467 38.2733C54.9031 38.1493 54.7158 38.2434 54.6192 38.2484Z" fill="#FFFEFC"/>
<path d="M49.8184 36.7279C51.9578 36.849 54.0779 36.1174 55.7945 34.8579C54.1366 34.8206 51.5315 35.8689 49.8184 36.7279Z" fill="#FFFEFC"/>
<path d="M40.0146 39.8824C40.9664 40.2584 42.0331 40.3988 43.0212 40.0816C41.9698 39.852 41.1232 39.716 40.0146 39.8824Z" fill="#FFFEFC"/>
</svg>
