<svg xmlns="http://www.w3.org/2000/svg" width="115" height="57" viewBox="0 0 115 57" fill="none">
  <path d="M108.041 52.3809C106.331 53.0159 104.485 53.1139 102.662 53.1529C96.8899 53.2979 91.1009 52.9109 85.4079 51.9579L85.4009 52.1179C80.8669 54.5999 74.8819 53.6639 70.7589 50.2679C69.1109 51.7559 66.7139 52.7709 64.5249 53.3749C46.1329 58.4249 26.1629 57.5399 8.27991 50.8909C4.07491 49.3329 -0.796105 46.0839 0.109895 41.6799C0.173895 41.3729 0.266899 41.0759 0.379899 40.7909C1.0749 39.1099 2.63289 37.8279 4.37489 37.1439C4.11889 35.9119 4.1359 34.6409 4.4899 33.4159C4.5139 33.3169 4.5389 33.2079 4.5739 33.1089C5.0369 31.6979 5.92191 30.4659 6.93091 29.3799C7.03591 29.2639 7.1299 29.1689 7.2349 29.0629C12.6939 23.5589 21.9199 22.2769 28.6109 26.6969C28.9689 19.3059 34.9029 12.5619 42.1979 11.2539C45.0339 10.7389 48.2019 11.0799 51.3539 12.9009C60.4679 -6.86507 90.7179 -1.66007 96.9939 17.5169C98.4839 22.0569 98.6279 27.3889 96.8319 33.3649C100.09 32.8089 103.521 32.3999 106.669 33.4109C108.08 33.8639 109.388 34.6329 110.495 35.6229C112.249 37.1419 113.509 39.2199 113.969 41.4829C114.044 41.8269 114.089 42.1689 114.123 42.5209C114.501 46.6519 111.938 50.9419 108.041 52.3809Z" fill="#FFFEFC"/>
  <path d="M108.041 52.3809C106.331 53.0159 104.485 53.1139 102.662 53.1529C96.8899 53.2979 91.1009 52.9109 85.4079 51.9579L85.4009 52.1179C80.8669 54.5999 74.8819 53.6639 70.7589 50.2679C69.1109 51.7559 66.7139 52.7709 64.5249 53.3749C46.1329 58.4249 26.1629 57.5399 8.27991 50.8909C4.07491 49.3329 -0.796105 46.0839 0.109895 41.6799C0.173895 41.3729 0.266899 41.0759 0.379899 40.7909C5.4409 45.1699 13.2699 45.3759 20.1119 44.5689C27.2149 43.7529 35.1259 41.6409 38.5579 35.3669C43.4539 39.1779 49.5349 41.7689 55.7259 41.4429C61.9169 41.1069 68.0949 37.4469 70.3629 31.6719C75.9089 40.2459 86.3809 44.2539 96.4459 45.9609C102.337 46.9629 109.303 46.9819 113.188 42.4489C113.452 42.1299 113.707 41.8009 113.971 41.4829C114.046 41.8269 114.091 42.1689 114.125 42.5209C114.501 46.6519 111.938 50.9419 108.041 52.3809Z" fill="#FFDFBC"/>
  <path d="M29.2947 50.8159C34.1817 53.3059 40.2937 54.3759 45.3647 51.8029C39.8517 51.5329 35.4667 50.4769 29.2947 50.8159Z" fill="#FFFEFC"/>
  <path d="M48.9399 48.022C45.1749 47.594 41.9349 47.925 38.4529 48.578C42.3379 49.863 46.6589 49.8889 50.4539 48.2789C51.2469 48.0499 49.2499 48.105 48.9399 48.022Z" fill="#FFFEFC"/>
  <path d="M28.6758 46.7519C29.7948 47.3579 31.0928 47.5079 32.3208 47.1779C31.1388 46.8409 29.9038 46.6989 28.6758 46.7519Z" fill="#FFFEFC"/>
  <path d="M70.8528 47.2079C74.8238 49.2369 79.4008 49.8709 83.7188 48.6439C79.5218 47.5709 75.1908 46.9579 70.8528 47.2079Z" fill="#FFFEFC"/>
</svg>