<svg width="430" height="121" viewBox="0 0 430 121" fill="none" xmlns="http://www.w3.org/2000/svg">
<path d="M427.139 84.4546C420.29 93.3937 410.648 93.58 395.421 92.2094C392.946 97.2677 388.291 101.042 383.163 103.383C378.034 105.723 372.413 106.763 366.829 107.548C357.251 108.865 347.402 109.438 337.841 108.308C333.714 113.831 326.181 116.768 319.242 115.716C315.751 115.195 312.474 113.785 309.602 111.723C285.182 125.159 246.675 116.515 223.252 105.373C220.108 108.445 216.295 110.879 212.376 112.927C193.825 122.514 171.095 123.634 151.7 115.903C145.699 113.513 139.836 110.054 135.157 105.58C127.119 111.572 116.934 114.786 106.848 115.88C84.3368 118.341 60.9353 111.065 43.7805 96.2669C40.2152 93.1979 36.7682 89.5497 35.7551 84.951C35.7089 84.732 35.6776 84.4995 35.6328 84.2792C26.9167 83.7815 18.2495 82.3728 9.82169 80.0762C5.43372 78.8796 0.303326 76.4973 0.00825705 71.9407C-0.0461336 70.9182 0.17007 69.9187 0.601116 69.0118C1.24021 67.6493 2.34841 66.4826 3.66195 65.6504C4.24937 65.252 4.88846 64.9379 5.53707 64.6918C8.57614 63.5618 11.9565 63.7644 15.186 63.9888C14.0315 59.1521 16.8503 54.0122 20.9255 51.1268C22.579 49.9411 24.4106 49.0613 26.3401 48.4304C29.1276 47.4527 32.1014 46.9591 35.0277 46.6001C43.6554 45.5844 53.1928 45.9787 59.8556 51.566C65.6373 36.6235 77.4768 27.4492 90.2695 25.7141C103.064 23.9804 116.286 29.1897 125.49 38.2539C126.995 39.7564 128.427 41.3786 129.663 43.1286C130.846 42.4542 132.081 41.8641 133.355 41.3433C142.208 37.7508 153.088 38.2675 160.51 44.2654C164.911 47.8429 167.692 52.8537 169.874 58.1527C170.266 58.5769 165.736 28.2256 194.615 16.6146C207.049 11.6134 221.54 13.3906 233.022 20.2723C243.013 8.95501 257.096 1.50214 271.968 0.20492C294.132 -1.72595 316.927 10.1394 328.052 29.4181C332.02 26.8278 337.476 27.1963 341.969 29.5255C346.448 31.8548 349.884 36.115 351.228 40.987C358.913 34.2589 369.667 34.1583 377.834 38.893C379.682 39.974 381.386 41.2943 382.89 42.7969C388.074 47.9028 391.172 55.1721 390.949 62.47C398.572 56.2966 409.895 55.2659 418.575 59.7096C419.216 60.0346 419.855 60.3868 420.465 60.7784C422.603 62.13 424.547 63.8406 426.088 65.8204C427.37 67.4644 428.398 69.3014 429.04 71.2867C430.484 75.6746 429.925 80.7833 427.139 84.4546Z" fill="#FFFEFC"/>
<path d="M427.139 84.4544C420.29 93.3935 410.648 93.5798 395.421 92.2091C392.946 97.2675 388.291 101.042 383.163 103.382C378.034 105.722 372.413 106.763 366.829 107.547C357.251 108.865 347.402 109.437 337.841 108.307C333.714 113.831 326.181 116.768 319.242 115.715C315.751 115.195 312.474 113.785 309.602 111.723C285.182 125.159 246.675 116.515 223.252 105.373C220.108 108.445 216.295 110.879 212.376 112.927C193.825 122.514 171.095 123.633 151.7 115.903C145.699 113.513 139.836 110.053 135.157 105.58C127.119 111.572 116.934 114.785 106.848 115.88C84.3368 118.341 60.9353 111.065 43.7805 96.2667C40.2152 93.1977 36.7682 89.5494 35.7551 84.9507C35.7089 84.7318 35.6776 84.4993 35.6328 84.279C26.9167 83.7813 18.2495 82.3726 9.82169 80.0759C5.43372 78.8794 0.303326 76.497 0.00825705 71.9405C-0.0461336 70.9179 0.17007 69.9185 0.601116 69.0115C1.24021 67.649 2.34841 66.4824 3.66195 65.6502C5.59145 68.7899 9.98894 70.0803 13.8412 70.752C22.2459 72.2315 31.1795 73.1058 38.8105 70.1306C46.6509 75.8743 55.5846 80.1371 64.9833 82.6214C70.3435 84.0329 75.9158 84.8678 81.4256 84.2314C86.9204 83.6073 92.3703 81.4031 96.2538 77.884C102 85.2988 111.657 88.4888 120.92 89.9614C127.776 91.052 134.824 91.415 141.628 90.0811C148.444 88.7472 155.034 85.6088 160.276 80.4567C171.725 85.7856 184.795 88.3773 197.136 85.6727C209.477 82.9818 220.856 74.4411 224.122 61.8347C231.999 65.9874 240.397 69.6982 249.293 70.1347C258.19 70.5589 267.746 67.0752 272.129 58.5549C282.122 67.6368 293.93 75.2393 307.193 77.7426C320.456 80.2595 335.298 76.9607 344.85 66.7829C356.211 74.3269 369.557 78.8481 383.156 79.7863C390.851 80.3112 398.838 79.6517 405.715 76.1557C412.174 72.8896 417.466 66.787 418.578 59.7135C419.219 60.0384 419.858 60.3906 420.468 60.7822C422.606 62.1338 424.55 63.8444 426.091 65.8242C427.373 67.4682 428.401 69.3052 429.043 71.2905C430.484 75.6744 429.925 80.783 427.139 84.4544Z" fill="#FFDFBC"/>
<path d="M321.74 96.079C327.013 98.5184 333.194 97.984 338.326 95.4372C332.777 95.0252 327.258 95.5487 321.74 96.079Z" fill="#FFFEFC"/>
<path d="M319.578 89.8375C315.304 88.5634 311.91 88.3757 307.594 87.8196C311.57 90.7499 316.718 91.6133 321.53 90.7961C323.346 90.6669 320.255 90.1203 319.578 89.8375Z" fill="#FFFEFC"/>
<path d="M338.666 88.6752C335.811 88.5909 332.993 89.1633 330.199 89.6882C333.292 90.7339 336.643 90.4646 339.637 89.2218C341.792 88.4821 339.633 88.7867 338.666 88.6752Z" fill="#FFFEFC"/>
<path d="M98.6691 103.857C94.5531 103.597 90.4398 104.036 86.3252 103.969C93.4612 107.561 103.103 108.813 109.954 103.984C106.221 104.617 102.417 104.067 98.6691 103.857Z" fill="#FFFEFC"/>
<path d="M78.6831 98.2601C82.2362 99.9394 86.3726 99.9992 90.1119 98.925C86.3304 97.9596 82.791 97.8821 78.6831 98.2601Z" fill="#FFFEFC"/>
<path d="M199.889 106.396C196.661 106.661 192.285 108.055 188.668 109.266C193.59 110.238 198.736 108.953 202.91 106.249C203.897 105.748 200.427 106.383 199.889 106.396Z" fill="#FFFEFC"/>
</svg>
