<svg xmlns="http://www.w3.org/2000/svg" width="155" height="87" viewBox="0 0 155 87" fill="none">
  <path d="M150.331 66.4081C148.101 67.7481 145.401 68.0681 142.791 68.2181C138.811 68.4481 134.821 68.3581 130.891 67.8781C130.881 68.6881 130.761 69.5081 130.521 70.2881C129.461 73.6981 126.341 76.0281 123.251 77.8281C104.221 88.9081 80.3512 88.6181 59.1512 82.6681C52.7612 80.8781 46.3012 78.4781 41.4812 73.9181C40.9412 73.4081 40.4212 72.8581 39.9312 72.2781C39.0712 72.5581 38.2012 72.7881 37.3512 72.9681C29.7112 74.6281 21.7012 74.5681 14.0812 72.7981C10.1512 71.8781 6.17119 70.4181 3.34119 67.5281C0.52119 64.6381 -0.848811 60.0281 0.981189 56.4181C1.48119 55.4281 2.19119 54.5881 3.04119 53.8781C4.70119 52.4881 6.88119 51.6581 9.06119 51.3681C9.64119 51.2981 10.2312 51.2581 10.8112 51.2481C10.7612 50.6481 10.7512 50.0481 10.7912 49.4381C11.0512 45.1081 13.8212 41.0081 17.7812 39.0981C22.0412 37.0481 27.0512 37.5381 32.1012 38.7181C28.7112 34.1181 29.1312 27.4081 32.3912 22.7281C35.6612 18.0381 41.3112 15.3081 47.0512 14.6881C49.5012 14.4181 52.0312 14.5081 54.3412 15.3581C57.7412 16.6181 60.4612 19.5681 61.3912 24.8881C61.3912 19.1181 64.1712 13.5181 68.3712 9.48807C72.5712 5.45807 78.1112 2.92807 83.8512 1.67807C87.6612 0.848074 91.6412 0.568075 95.4712 1.35807C101.771 2.65807 107.361 6.99808 110.111 12.7281C110.691 13.9281 111.141 15.1881 111.451 16.4881H111.491C116.421 16.6281 121.221 19.6081 123.301 24.0781C123.801 25.1581 124.131 26.3181 124.291 27.4981C129.131 27.9281 133.851 30.4181 136.361 34.4981C137.321 36.0281 137.891 37.7881 138.051 39.5981C138.371 42.8181 137.391 46.2481 134.921 49.0081C138.471 47.1181 142.781 46.5381 146.601 47.7681C149.541 48.7281 152.131 50.8281 153.561 53.5181C153.991 54.3181 154.321 55.1681 154.521 56.0581C154.621 56.4781 154.701 56.9281 154.731 57.3781C155.021 60.8781 153.381 64.5581 150.331 66.4081Z" fill="#547C6A"/>
  <path d="M150.331 66.4081C148.101 67.7481 145.401 68.0681 142.791 68.2181C138.811 68.4481 134.821 68.3581 130.891 67.8781C130.881 68.6881 130.761 69.5081 130.521 70.2881C129.461 73.6981 126.341 76.0281 123.251 77.8281C104.221 88.9081 80.3512 88.6181 59.1512 82.6681C52.7612 80.8781 46.3012 78.4781 41.4812 73.9181C40.9412 73.4081 40.4212 72.8581 39.9312 72.2781C39.0712 72.5581 38.2012 72.7881 37.3512 72.9681C29.7112 74.6281 21.7012 74.5681 14.0812 72.7981C10.1512 71.8781 6.17119 70.4181 3.34119 67.5281C0.52119 64.6381 -0.848811 60.0281 0.981189 56.4181C1.48119 55.4281 2.19119 54.5881 3.04119 53.8781C7.27119 59.3481 13.9112 62.9381 20.8312 63.4181C28.4112 63.9481 36.1712 60.7381 41.1612 54.9981C47.4612 65.2581 59.8512 70.3381 71.8312 71.5581C78.8212 72.2781 86.0812 71.8681 92.5412 69.0881C99.0012 66.3181 104.561 60.9381 106.381 54.1481C115.901 59.9481 127.271 62.6781 138.391 61.8281C144.451 61.3781 151.391 58.9581 153.561 53.5181C153.991 54.3181 154.321 55.1681 154.521 56.0581C154.621 56.4781 154.701 56.9281 154.731 57.3781C155.021 60.8781 153.381 64.5581 150.331 66.4081Z" fill="#2C433D"/>
  <path d="M79.8792 27.647C82.1492 31.263 85.9272 33.8981 90.1042 34.7791C94.2812 35.6601 98.8022 34.7761 102.339 32.3851C104.201 34.6271 107.307 35.7631 110.176 35.2511C113.046 34.7391 115.567 32.6001 116.539 29.8521C114.161 31.7581 110.85 32.4371 107.913 31.6221C104.976 30.8071 102.489 28.5181 101.434 25.6591C95.3672 30.4551 86.1752 30.813 79.8792 27.647Z" fill="#84B383"/>
  <path d="M109.824 77.6921C105.953 78.1501 103.026 78.6611 98.5622 78.7491C95.8752 78.6871 93.1562 79.4781 90.4982 79.0261C91.8842 80.2281 93.7882 80.4901 95.5192 80.8921C97.9302 81.3851 100.452 81.7001 102.875 81.1131C105.443 80.4261 107.902 79.2611 110.08 77.7421C110.394 77.4931 110.018 77.6821 109.824 77.6921Z" fill="#81AB7E"/>
  <path d="M100.184 74.639C104.48 74.882 108.737 73.413 112.184 70.884C108.855 70.809 103.624 72.914 100.184 74.639Z" fill="#81AB7E"/>
  <path d="M80.4982 80.9731C82.4092 81.7281 84.5512 82.0101 86.5352 81.3731C84.4242 80.9121 82.7242 80.6391 80.4982 80.9731Z" fill="#81AB7E"/>
</svg>