<svg xmlns="http://www.w3.org/2000/svg" width="147" height="62" viewBox="0 0 147 62" fill="none">
  <path d="M7.8389 56.4338C10.029 57.1228 12.3933 57.2292 14.7281 57.2715C22.1207 57.4288 29.535 57.0089 36.8264 55.9747L36.8354 56.1484C42.6424 58.8417 50.3078 57.826 55.5884 54.1408C57.6991 55.7555 60.7691 56.857 63.5726 57.5124C87.1285 62.9925 112.705 62.0321 135.609 54.8169C140.995 53.1262 147.233 49.6005 146.073 44.8215C145.991 44.4883 145.872 44.166 145.727 43.8568C144.837 42.0326 142.842 40.6415 140.611 39.8992C140.939 38.5623 140.917 37.1831 140.463 35.8537C140.433 35.7463 140.401 35.628 140.356 35.5206C139.763 33.9894 138.629 32.6525 137.337 31.474C137.203 31.3482 137.082 31.2451 136.948 31.1301C129.956 25.1573 118.14 23.7662 109.57 28.5626C109.112 20.5422 101.511 13.2239 92.1683 11.8045C88.536 11.2456 84.4786 11.6157 80.4416 13.5917C68.7687 -7.85748 30.0256 -2.20924 21.9875 18.6008C20.0792 23.5275 19.8947 29.3135 22.195 35.7984C18.0222 35.1951 13.6279 34.7512 9.5961 35.8483C7.78894 36.3399 6.11369 37.1744 4.69588 38.2487C2.44942 39.897 0.835663 42.152 0.246506 44.6077C0.150452 44.981 0.0928192 45.3521 0.0492859 45.7341C-0.434845 50.2169 2.84775 54.8722 7.8389 56.4338Z" fill="#FFF4E4"/>
  <path d="M7.83888 56.4337C10.029 57.1228 12.3933 57.2291 14.7281 57.2714C22.1207 57.4288 29.535 57.0088 36.8264 55.9747L36.8354 56.1483C42.6424 58.8417 50.3078 57.8259 55.5884 54.1407C57.6991 55.7555 60.769 56.8569 63.5726 57.5124C87.1285 62.9924 112.705 62.032 135.609 54.8168C140.995 53.1261 147.233 49.6005 146.073 44.8214C145.991 44.4883 145.872 44.166 145.727 43.8567C139.245 48.6086 129.218 48.8322 120.455 47.9565C111.358 47.071 101.226 44.7791 96.8303 37.9708C90.5596 42.1063 82.7713 44.918 74.8421 44.5643C66.9129 44.1996 59.0003 40.228 56.0955 33.9612C48.9924 43.2653 35.5802 47.6146 22.6893 49.467C15.1443 50.5543 6.22255 50.5749 1.24678 45.6559C0.908661 45.3097 0.582062 44.9527 0.243927 44.6077C0.147873 44.981 0.0902557 45.3521 0.0467072 45.7341C-0.43486 50.2168 2.84773 54.8722 7.83888 56.4337Z" fill="#FFC586"/>
  <path d="M108.694 54.7356C102.435 57.4377 94.6068 58.5988 88.1121 55.8067C95.1729 55.5137 100.789 54.3678 108.694 54.7356Z" fill="#FFF4E4"/>
  <path d="M83.5335 51.7037C88.3555 51.2393 92.5052 51.5985 96.9648 52.3071C91.9891 53.7015 86.4549 53.7297 81.5944 51.9826C80.5787 51.7341 83.1364 51.7938 83.5335 51.7037Z" fill="#FFF4E4"/>
  <path d="M109.487 50.3254C108.054 50.9831 106.391 51.1458 104.818 50.7877C106.332 50.422 107.914 50.2679 109.487 50.3254Z" fill="#FFF4E4"/>
  <path d="M55.4679 50.8204C50.382 53.0221 44.5199 53.7101 38.9896 52.3786C44.3649 51.2143 49.9119 50.5491 55.4679 50.8204Z" fill="#FFF4E4"/>
</svg>