<svg width="155" height="86" viewBox="0 0 155 86" fill="none" xmlns="http://www.w3.org/2000/svg">
<path d="M150.182 65.5179C147.952 66.8579 145.252 67.1779 142.642 67.3279C138.662 67.5579 134.672 67.4679 130.742 66.9879C130.732 67.7979 130.612 68.6179 130.372 69.3979C129.312 72.8079 126.192 75.1379 123.102 76.9379C104.072 88.0179 80.2015 87.7279 59.0015 81.7779C52.6115 79.9879 46.1515 77.5879 41.3315 73.0279C40.7915 72.5179 40.2715 71.9679 39.7815 71.3879C38.9215 71.6679 38.0515 71.8979 37.2015 72.0779C29.5615 73.7379 21.5515 73.6779 13.9315 71.9079C10.0015 70.9879 6.02153 69.5279 3.19153 66.6379C0.371531 63.7479 -0.998469 59.1379 0.831531 55.5279C1.33153 54.5379 2.04153 53.6979 2.89153 52.9879C4.55153 51.5979 6.73153 50.7679 8.91153 50.4779C9.49153 50.4079 10.0815 50.3679 10.6615 50.3579C10.6115 49.7579 10.6015 49.1579 10.6415 48.5479C10.9015 44.2179 13.6715 40.1179 17.6315 38.2079C21.8915 36.1579 26.9015 36.6479 31.9515 37.8279C28.5615 33.2279 28.9815 26.5179 32.2415 21.8379C35.5115 17.1479 41.1615 14.4179 46.9015 13.7979C49.3515 13.5279 51.8815 13.6179 54.1915 14.4679C57.5915 15.7279 60.3115 18.6779 61.2415 23.9979C61.2415 18.2279 64.0215 12.6279 68.2215 8.59794C72.4215 4.56794 77.9615 2.03794 83.7015 0.787938C87.5115 -0.0420622 91.4915 -0.322062 95.3215 0.467938C101.622 1.76794 107.212 6.10794 109.962 11.8379C110.542 13.0379 110.992 14.2979 111.302 15.5979H111.342C116.272 15.7379 121.072 18.7179 123.152 23.1879C123.652 24.2679 123.982 25.4279 124.142 26.6079C128.982 27.0379 133.702 29.5279 136.212 33.6079C137.172 35.1379 137.742 36.8979 137.902 38.7079C138.222 41.9279 137.242 45.3579 134.772 48.1179C138.322 46.2279 142.632 45.6479 146.452 46.8779C149.392 47.8379 151.982 49.9379 153.412 52.6279C153.842 53.4279 154.172 54.2779 154.372 55.1679C154.472 55.5879 154.552 56.0379 154.582 56.4879C154.872 59.9879 153.232 63.6679 150.182 65.5179Z" fill="#FFE8C3"/>
<path d="M150.182 65.5179C147.952 66.8579 145.252 67.1779 142.642 67.3279C138.662 67.5579 134.672 67.4679 130.742 66.9879C130.732 67.7979 130.612 68.6179 130.372 69.3979C129.312 72.8079 126.192 75.1379 123.102 76.9379C104.072 88.0179 80.2015 87.7279 59.0015 81.7779C52.6115 79.9879 46.1515 77.5879 41.3315 73.0279C40.7915 72.5179 40.2715 71.9679 39.7815 71.3879C38.9215 71.6679 38.0515 71.8979 37.2015 72.0779C29.5615 73.7379 21.5515 73.6779 13.9315 71.9079C10.0015 70.9879 6.02153 69.5279 3.19153 66.6379C0.371531 63.7479 -0.998469 59.1379 0.831531 55.5279C1.33153 54.5379 2.04153 53.6979 2.89153 52.9879C7.12153 58.4579 13.7615 62.0479 20.6815 62.5279C28.2615 63.0579 36.0215 59.8479 41.0115 54.1079C47.3115 64.3679 59.7015 69.4479 71.6815 70.6679C78.6715 71.3879 85.9315 70.9779 92.3915 68.1979C98.8515 65.4279 104.412 60.0479 106.232 53.2579C115.752 59.0579 127.122 61.7879 138.242 60.9379C144.302 60.4879 151.242 58.0679 153.412 52.6279C153.842 53.4279 154.172 54.2779 154.372 55.1679C154.472 55.5879 154.552 56.0379 154.582 56.4879C154.872 59.9879 153.232 63.6679 150.182 65.5179Z" fill="#EBB77F"/>
<path d="M79.7295 26.757C81.9995 30.373 85.7775 33.008 89.9545 33.889C94.1315 34.77 98.6525 33.886 102.189 31.495C104.051 33.737 107.158 34.873 110.027 34.361C112.897 33.849 115.417 31.71 116.389 28.962C114.011 30.868 110.701 31.547 107.764 30.732C104.827 29.917 102.34 27.628 101.285 24.769C95.2175 29.565 86.0255 29.923 79.7295 26.757Z" fill="#EBB77F"/>
<path d="M109.675 76.802C105.804 77.26 102.877 77.771 98.4126 77.859C95.7256 77.797 93.0066 78.588 90.3486 78.136C91.7346 79.338 93.6386 79.6 95.3696 80.002C97.7806 80.495 100.303 80.81 102.726 80.223C105.294 79.536 107.753 78.371 109.931 76.852C110.245 76.603 109.869 76.792 109.675 76.802Z" fill="#FFFEFC"/>
<path d="M100.035 73.7489C104.331 73.9919 108.588 72.5229 112.035 69.9939C108.706 69.9189 103.475 72.0239 100.035 73.7489Z" fill="#FFFEFC"/>
<path d="M80.3486 80.0829C82.2596 80.8379 84.4016 81.1199 86.3856 80.4829C84.2746 80.0219 82.5746 79.7489 80.3486 80.0829Z" fill="#FFFEFC"/>
</svg>
