<svg xmlns="http://www.w3.org/2000/svg" width="109" height="41" viewBox="0 0 109 41" fill="none">
  <path d="M105.875 30.9154C104.303 31.5477 102.399 31.6987 100.559 31.7695C97.7535 31.878 94.9406 31.8355 92.1701 31.609C92.163 31.9912 92.0784 32.3782 91.9092 32.7462C91.162 34.3553 88.9624 35.4547 86.784 36.304C73.3683 41.5323 56.5404 41.3954 41.5949 38.5879C37.09 37.7432 32.5359 36.6108 29.1379 34.4591C28.7572 34.2184 28.3906 33.9589 28.0452 33.6852C27.4389 33.8173 26.8255 33.9259 26.2263 34.0108C20.8403 34.7941 15.1934 34.7658 9.82145 33.9306C7.05088 33.4965 4.24506 32.8076 2.24996 31.4439C0.261922 30.0802 -0.7039 27.9049 0.586212 26.2015C0.938702 25.7344 1.43924 25.338 2.03847 25.003C3.20873 24.3471 4.74559 23.9554 6.28245 23.8186C6.69133 23.7856 7.10727 23.7667 7.51616 23.762C7.48091 23.4788 7.47386 23.1957 7.50206 22.9079C7.68535 20.8647 9.63815 18.9301 12.4299 18.0289C15.4331 17.0615 18.965 17.2927 22.5252 17.8495C20.1353 15.679 20.4314 12.5128 22.7296 10.3045C25.0349 8.09145 29.018 6.80327 33.0646 6.51071C34.7918 6.38331 36.5754 6.42578 38.2039 6.82686C40.6008 7.4214 42.5184 8.8134 43.174 11.3237C43.174 8.60106 45.1339 5.95864 48.0948 4.05703C51.0557 2.15543 54.9613 0.961624 59.0078 0.371797C61.6938 -0.0198475 64.4996 -0.151969 67.1997 0.220802C71.6411 0.834222 75.5819 2.8821 77.5206 5.58587C77.9295 6.1521 78.2467 6.74664 78.4653 7.36006H78.4935C81.969 7.42613 85.3529 8.83227 86.8193 10.9415C87.1718 11.4511 87.4044 11.9985 87.5172 12.5553C90.9293 12.7582 94.2568 13.9331 96.0263 15.8583C96.7031 16.5802 97.1049 17.4107 97.2177 18.2648C97.4433 19.7842 96.7524 21.4027 95.0111 22.705C97.5138 21.8132 100.552 21.5395 103.245 22.1199C105.318 22.5729 107.144 23.5638 108.152 24.8331C108.455 25.2106 108.688 25.6117 108.829 26.0316C108.899 26.2298 108.956 26.4421 108.977 26.6545C109.181 28.306 108.025 30.0424 105.875 30.9154Z" fill="#547C6A"/>
  <path d="M105.875 30.9153C104.303 31.5476 102.399 31.6986 100.559 31.7694C97.7535 31.8779 94.9406 31.8354 92.1701 31.6089C92.163 31.9911 92.0784 32.3781 91.9092 32.7461C91.162 34.3552 88.9624 35.4546 86.784 36.304C73.3683 41.5322 56.5404 41.3953 41.5949 38.5878C37.09 37.7431 32.5359 36.6107 29.1379 34.459C28.7572 34.2183 28.3906 33.9588 28.0452 33.6851C27.4389 33.8173 26.8255 33.9258 26.2263 34.0107C20.8403 34.794 15.1934 34.7657 9.82145 33.9305C7.05088 33.4964 4.24506 32.8075 2.24996 31.4438C0.261922 30.0801 -0.7039 27.9048 0.586212 26.2014C0.938702 25.7343 1.43924 25.3379 2.03847 25.0029C5.02053 27.584 9.7016 29.2779 14.5801 29.5044C19.9238 29.7545 25.3944 28.2398 28.9123 25.5314C33.3537 30.3727 42.0883 32.7697 50.534 33.3454C55.4618 33.6851 60.58 33.4917 65.1341 32.1799C69.6883 30.8728 73.608 28.3342 74.891 25.1303C81.6024 27.8671 89.618 29.1553 97.4574 28.7542C101.73 28.5418 106.622 27.3999 108.152 24.833C108.455 25.2105 108.688 25.6116 108.829 26.0315C108.899 26.2297 108.956 26.4421 108.977 26.6544C109.181 28.3059 108.025 30.0424 105.875 30.9153Z" fill="#2C433D"/>
  <path d="M56.2075 12.6256C57.8078 14.3318 60.4712 15.5752 63.4159 15.9909C66.3606 16.4066 69.5478 15.9895 72.0414 14.8612C73.354 15.9192 75.5437 16.4552 77.5663 16.2136C79.5896 15.972 81.3668 14.9627 82.0521 13.666C80.3756 14.5654 78.0414 14.8858 75.9709 14.5012C73.9004 14.1166 72.1471 13.0366 71.4034 11.6875C67.1262 13.9505 60.6461 14.1195 56.2075 12.6256Z" fill="#84B383"/>
  <path d="M77.3183 36.24C74.5893 36.4561 72.5258 36.6972 69.3788 36.7387C67.4845 36.7095 65.5677 37.0827 63.6938 36.8694C64.6709 37.4366 66.0132 37.5602 67.2335 37.7499C68.9333 37.9826 70.7112 38.1312 72.4194 37.8542C74.2298 37.53 75.9633 36.9803 77.4988 36.2636C77.7201 36.1461 77.455 36.2352 77.3183 36.24Z" fill="#81AB7E"/>
  <path d="M70.5225 34.7994C73.5511 34.914 76.5521 34.2209 78.9822 33.0275C76.6353 32.9921 72.9476 33.9854 70.5225 34.7994Z" fill="#81AB7E"/>
  <path d="M56.644 37.7882C57.9913 38.1444 59.5013 38.2775 60.9 37.9769C59.4118 37.7594 58.2133 37.6305 56.644 37.7882Z" fill="#81AB7E"/>
</svg>